<svg width="253" height="300" viewBox="0 0 253 300" fill="none" xmlns="http://www.w3.org/2000/svg">
<g clip-path="url(#clip0_16_35)">
<path d="M228.29 106.24C228.308 97.9788 225.771 89.9143 221.027 83.1509C216.283 76.3876 209.564 71.2564 201.79 68.46C202.5 64.8566 202.858 61.1927 202.86 57.52C202.864 45.3596 199.012 33.5111 191.858 23.6775C184.704 13.8439 174.617 6.53143 163.046 2.79112C151.475 -0.949182 139.016 -0.924759 127.46 2.86088C115.904 6.64652 105.845 13.9984 98.7302 23.86C93.4831 19.7958 87.0546 17.5521 80.4181 17.4688C73.7816 17.3854 67.2988 19.467 61.9513 23.3981C56.6039 27.3293 52.6831 32.896 50.7828 39.2552C48.8826 45.6143 49.1063 52.4195 51.4202 58.64C43.6261 61.4761 36.8879 66.6318 32.1125 73.4132C27.3371 80.1946 24.7537 88.2761 24.7102 96.57C24.684 104.864 27.2299 112.963 31.9972 119.75C36.7646 126.538 43.5189 131.68 51.3302 134.47C50.6532 138.074 50.3184 141.733 50.3302 145.4C50.3084 157.557 54.1513 169.407 61.3039 179.238C68.4566 189.068 78.5487 196.371 90.1228 200.092C101.697 203.812 114.154 203.758 125.695 199.936C137.236 196.114 147.264 188.723 154.33 178.83C159.562 182.912 165.983 185.176 172.618 185.278C179.253 185.38 185.74 183.315 191.095 179.395C196.449 175.476 200.379 169.917 202.288 163.561C204.197 157.206 203.98 150.401 201.67 144.18C209.449 141.329 216.169 136.165 220.928 129.383C225.686 122.601 228.255 114.525 228.29 106.24ZM103.53 30C110.086 20.4654 119.73 13.4846 130.835 10.2361C141.941 6.98757 153.827 7.67029 164.487 12.169C175.147 16.6677 183.929 24.7069 189.35 34.9294C194.77 45.1519 196.498 56.9316 194.24 68.28L149.3 107.64L104.75 87.34L96.0502 68.77L103.53 30ZM81.0002 25C86.2833 24.999 91.4204 26.7348 95.6202 29.94L88.8802 64.63L58.3602 57.42C57.0366 53.7754 56.6094 49.8659 57.1145 46.0215C57.6196 42.177 59.0422 38.5105 61.2622 35.3315C63.4822 32.1525 66.4345 29.5542 69.8699 27.756C73.3052 25.9579 77.1227 25.0126 81.0002 25ZM32.5802 96.66C32.6251 89.5822 34.8778 82.6948 39.0241 76.9585C43.1704 71.2221 49.0036 66.9228 55.7102 64.66L89.2102 72.57L97.0702 89.38L54.2402 128.12C47.8674 125.688 42.3838 121.378 38.5158 115.76C34.6477 110.142 32.5778 103.481 32.5802 96.66ZM149.67 172.85C143.618 181.76 134.869 188.494 124.707 192.063C114.545 195.633 103.506 195.85 93.2118 192.682C82.9176 189.514 73.9104 183.129 67.5132 174.464C61.1161 165.799 57.6662 155.311 57.6702 144.54C57.6749 141.182 58.0098 137.833 58.6702 134.54L102.47 94.9L147.19 115.28L157.09 134.2L149.67 172.85ZM172.05 177.85C166.782 177.832 161.667 176.074 157.5 172.85L164.14 138.27L194.64 145.4C195.967 149.041 196.398 152.948 195.897 156.791C195.397 160.634 193.979 164.3 191.764 167.48C189.549 170.659 186.602 173.26 183.171 175.061C179.74 176.863 175.925 177.812 172.05 177.83V177.85ZM197.29 138.14L163.71 130.29L154.79 113.29L198.71 74.81C205.088 77.2217 210.581 81.5174 214.459 87.1262C218.337 92.735 220.416 99.3912 220.42 106.21C220.357 113.272 218.095 120.14 213.95 125.858C209.805 131.577 203.982 135.862 197.29 138.12V138.14Z" fill="#1C1E23"/>
<path d="M35.91 292.76L38.79 292.46L38.98 298.31C32.5772 299.28 26.1154 299.812 19.64 299.9C12.5 299.9 7.44002 297.833 4.46002 293.7C1.48002 289.567 -0.00664435 283.137 2.23214e-05 274.41C2.23214e-05 257.01 6.91002 248.313 20.73 248.32C27.3967 248.32 32.3967 250.187 35.73 253.92C39.0634 257.653 40.73 263.523 40.73 271.53L40.33 277.18H7.54002C7.54002 282.673 8.54002 286.743 10.54 289.39C12.54 292.037 15.9934 293.37 20.9 293.39C25.82 293.363 30.8234 293.153 35.91 292.76ZM33.23 271.23C33.23 265.15 32.2534 260.853 30.3 258.34C28.3467 255.827 25.1734 254.57 20.78 254.57C16.38 254.57 13.0734 255.903 10.86 258.57C8.64669 261.237 7.50669 265.457 7.44002 271.23H33.23Z" fill="#1C1E23"/>
<path d="M51.0498 299.52V234.23H58.4898V299.52H51.0498Z" fill="#1C1E23"/>
<path d="M105.34 264.29V289.29C105.34 291.77 111.51 291.67 111.51 291.67L111.13 298.24C105.91 298.24 101.58 298.68 98.9799 296.16C93.3628 298.657 87.277 299.926 81.1299 299.88C76.5699 299.88 73.0999 298.59 70.7199 296.01C68.3399 293.43 67.1499 289.727 67.1499 284.9C67.1499 280.08 68.3732 276.527 70.8199 274.24C73.2666 271.953 77.0999 270.54 82.3199 270L97.8999 268.51V264.25C97.8999 260.88 97.1699 258.46 95.7199 257.01C94.9238 256.252 93.9802 255.667 92.9479 255.29C91.9156 254.913 90.8168 254.753 89.7199 254.82H70.1799V248.26H89.1799C94.7999 248.26 98.8832 249.55 101.43 252.13C103.977 254.71 105.28 258.763 105.34 264.29ZM74.7899 284.53C74.7899 290.61 77.2999 293.65 82.3199 293.65C86.85 293.645 91.3467 292.874 95.6199 291.37L97.8999 290.58V274.21L83.2199 275.6C80.2399 275.86 78.0899 276.72 76.7699 278.18C75.4499 279.64 74.7899 281.757 74.7899 284.53Z" fill="#1C1E23"/>
<path d="M134.38 255C127.173 255 123.567 257.513 123.56 262.54C123.56 264.86 124.387 266.497 126.04 267.45C127.693 268.403 131.463 269.403 137.35 270.45C143.243 271.483 147.41 272.92 149.85 274.76C152.29 276.6 153.513 280.073 153.52 285.18C153.52 290.267 151.883 294.003 148.61 296.39C145.337 298.777 140.56 299.967 134.28 299.96C130.18 299.96 116.49 298.44 116.49 298.44L116.89 291.99C124.75 292.75 130.44 293.31 134.28 293.31C138.12 293.31 141.04 292.7 143.06 291.48C145.08 290.26 146.06 288.21 146.06 285.33C146.06 282.45 145.2 280.5 143.48 279.48C141.76 278.46 137.99 277.48 132.17 276.55C126.35 275.62 122.17 274.27 119.77 272.48C117.37 270.69 116.1 267.39 116.1 262.56C116.1 257.73 117.81 254.17 121.21 251.85C125.015 249.399 129.477 248.167 134 248.32C138 248.32 152 249.32 152 249.32V255.81C144.65 255.49 138.61 255 134.38 255Z" fill="#1C1E23"/>
<path d="M189.4 255.76H173.63V279.47C173.63 285.15 174.043 288.887 174.87 290.68C175.7 292.46 177.66 293.35 180.77 293.35L189.6 292.76L190.1 298.91C186.766 299.526 183.389 299.891 180 300C174.84 300 171.27 298.743 169.29 296.23C167.31 293.717 166.31 288.923 166.29 281.85V255.76H159.29V249.31H166.29V234.13H173.63V249.31H189.4V255.76Z" fill="#1C1E23"/>
<path d="M199.75 243V234.37H207.19V243H199.75ZM199.75 299.55V249.31H207.19V299.52L199.75 299.55Z" fill="#1C1E23"/>
<path d="M239.41 248.32C243.135 248.471 246.847 248.869 250.52 249.51L252.9 249.81L252.61 255.86C248.724 255.362 244.816 255.062 240.9 254.96C235.28 254.96 231.46 256.293 229.44 258.96C227.42 261.627 226.42 266.587 226.44 273.84C226.44 281.08 227.38 286.123 229.26 288.97C231.14 291.817 235.053 293.243 241 293.25L252.7 292.36L253 298.51C248.44 299.288 243.833 299.752 239.21 299.9C231.476 299.9 226.143 297.917 223.21 293.95C220.276 289.983 218.806 283.287 218.8 273.86C218.8 264.44 220.386 257.827 223.56 254.02C226.733 250.213 232.016 248.313 239.41 248.32Z" fill="#1C1E23"/>
</g>
<defs>
<clipPath id="clip0_16_35">
<rect width="253" height="300" fill="white"/>
</clipPath>
</defs>
</svg>
